<svg width="237" height="58" viewBox="0 0 237 58" fill="none" xmlns="http://www.w3.org/2000/svg">
<g clip-path="url(#clip0_8143_2656)">
<path d="M25.668 36.0336L43.8169 30.5377L28.7679 15.7422L25.668 36.0336Z" fill="#FFF488"/>
<path d="M54.7386 15.7422L43.8203 30.5377L59.2581 29.6461L54.7386 15.7422Z" fill="#AF1915"/>
<path d="M45.853 4.51562L43.8203 30.5387L54.7386 15.7432L45.853 4.51562Z" fill="#F05E3E"/>
<path d="M28.7695 15.7432L45.8512 4.51562L43.8185 30.5387L28.7695 15.7432Z" fill="#F6DE5C"/>
<path d="M33.3833 0L17.9531 1.08928L28.7671 15.7404L33.3833 0Z" fill="#15847F"/>
<path d="M33.3857 0L45.8515 4.51284L28.7695 15.7404L33.3857 0Z" fill="#00DEDA"/>
<path d="M17.955 1.08594L6.26562 11.2009L28.7693 15.7371L17.955 1.08594Z" fill="#15847F"/>
<path d="M22.268 25.0193L28.7693 15.7393L6.26562 11.2031L22.268 25.0193Z" fill="#EC2E1C"/>
<path d="M11.5689 40.3047L9.23047 51.6982L20.7776 57.9959L11.5689 40.3047Z" fill="#00DEDA"/>
<path d="M11.5664 40.3113L20.7751 58.0025L25.6708 36.0391L11.5664 40.3113Z" fill="#15847F"/>
<path d="M20.7695 57.9999L31.4045 45.3281L36.7614 57.9999H20.7695Z" fill="#FFF488"/>
<path d="M31.4062 45.3281L36.7632 57.9999C36.7632 57.9999 49.6381 50.4654 49.276 50.8092L31.4062 45.3281Z" fill="#F6DE5C"/>
<path d="M31.4062 45.3267L43.8159 30.5391L49.276 50.8078L31.4062 45.3267Z" fill="#00DEDA"/>
<path d="M43.8203 30.5322L49.2803 50.8009L59.2581 29.6406L43.8203 30.5322Z" fill="#15847F"/>
<path d="M28.7654 15.7422L18.4023 30.5377L25.6654 36.0336L28.7654 15.7422Z" fill="#F6DE5C"/>
<path d="M11.5664 40.3073L18.4077 30.5391L25.6708 36.035L11.5664 40.3073Z" fill="#FFF488"/>
<path d="M25.668 36.035L31.4072 45.3267L43.8169 30.5391L25.668 36.035Z" fill="#15847F"/>
<path d="M25.6652 36.0391L20.7695 58.0025L31.4045 45.3307L25.6652 36.0391Z" fill="#AF1915"/>
<path d="M6.26562 11.2031L16.8501 32.7545L22.268 25.0193L6.26562 11.2031Z" fill="#AF1915"/>
<path d="M6.2656 11.2031L0 23.1368L13.4764 25.8849L6.2656 11.2031Z" fill="#F05E3E"/>
<path d="M0 23.1328L1.41459 40.6648L6.7382 34.1417L13.4764 25.8809" fill="#AF1915"/>
<path d="M13.4727 25.8828L7.86719 32.7524H16.8463L13.4727 25.8828Z" fill="#00DEDA"/>
<path d="M7.86719 32.7578H16.8463L11.5612 40.3063L7.86719 32.7578Z" fill="#15847F"/>
<path d="M11.5644 40.3063L7.8704 32.7578L1.41406 40.6721L11.5644 40.3063Z" fill="#FFF488"/>
<path d="M1.41406 40.6704L11.5644 40.3047L9.22598 51.6982L1.41406 40.6704Z" fill="#F6DE5C"/>
</g>
<path d="M81.071 49.3125H68.0518V46.2787H81.071C82.6954 46.2787 83.6032 45.3709 83.6032 44.0093C83.6032 42.5282 82.6954 41.7638 81.071 41.7638H73.0923C69.8196 41.7638 67.7891 39.6855 67.7891 36.8189C67.7891 34.0239 69.6763 31.9456 73.1401 31.9456H85.6098V34.9795H73.1401C71.7545 34.9795 70.9423 35.7917 70.9423 37.1055C70.9423 38.4194 71.7784 39.2077 73.1162 39.2077H81.071C84.5826 39.2077 86.4698 40.856 86.4698 44.2243C86.4698 47.1387 84.702 49.3125 81.071 49.3125ZM101.23 49.3125H97.0018C92.1524 49.3125 88.5692 45.4904 88.5692 40.4499C88.5692 35.3378 92.1524 31.9456 97.0018 31.9456H101.23C106.247 31.9456 109.734 35.4095 109.734 40.4499C109.734 45.4904 106.175 49.3125 101.23 49.3125ZM97.0018 46.2787H101.23C104.431 46.2787 106.7 43.8659 106.7 40.5932C106.7 37.3205 104.431 34.9795 101.23 34.9795H97.0018C93.8963 34.9795 91.603 37.2966 91.603 40.5932C91.603 43.8659 93.8724 46.2787 97.0018 46.2787ZM115.199 49.3125H112.189V31.9456H126.928V34.9795H115.199V49.3125ZM126.212 42.1221H117.421V39.4705H126.212V42.1221ZM138.612 49.3125H135.578V34.9795H128.985V31.9456H145.205V34.9795H138.612V49.3125ZM163.521 48.5958L160.846 43.5076L158.146 48.5958C157.812 49.2408 157.215 49.5514 156.594 49.5514C155.925 49.5514 155.375 49.2408 155.017 48.5958L146.035 31.9456H149.666L156.689 45.2993L159.317 40.5694L154.802 31.9456H158.457L165.169 45.2993L172.24 31.9456H175.633L166.651 48.5958C166.292 49.2408 165.719 49.5514 165.074 49.5514C164.429 49.5514 163.856 49.2408 163.521 48.5958ZM193.859 49.3125H190.204L187.6 44.9409H179.383L180.816 42.4804H186.143L182.273 35.9828L174.39 49.3125H170.926L180.912 32.6862C181.27 32.089 181.724 31.7068 182.393 31.7068C183.062 31.7068 183.492 32.089 183.85 32.6862L193.859 49.3125ZM216.153 49.3125H211.853L207.458 44.487H200.96V41.8115H208.198C210.372 41.8115 211.519 40.5694 211.519 38.3238C211.519 36.0783 210.277 34.9795 208.198 34.9795H198.739V49.3125H195.729V31.9456H208.198C212.164 31.9456 214.505 34.4062 214.505 38.2761C214.505 41.1427 213.167 43.1732 210.922 44.0332L216.153 49.3125ZM233.255 49.3125H217.727V31.9456H233.231V34.9795H220.737V46.2787H233.255V49.3125ZM232.586 41.7638H222.959V39.2077H232.586V41.7638Z" fill="white"/>
<path d="M81.071 24.0312H68.0518V20.9974H81.071C82.6954 20.9974 83.6032 20.0897 83.6032 18.728C83.6032 17.247 82.6954 16.4825 81.071 16.4825H73.0923C69.8196 16.4825 67.7891 14.4042 67.7891 11.5376C67.7891 8.74269 69.6763 6.6644 73.1401 6.6644H85.6098V9.69822H73.1401C71.7545 9.69822 70.9423 10.5104 70.9423 11.8243C70.9423 13.1381 71.7784 13.9265 73.1162 13.9265H81.071C84.5826 13.9265 86.4698 15.5748 86.4698 18.943C86.4698 21.8574 84.702 24.0312 81.071 24.0312ZM92.2719 24.0312H89.238V6.6644H92.2719V24.0312ZM115.864 24.0312H111.564L107.169 19.2058H100.671V16.5303H107.909C110.083 16.5303 111.23 15.2881 111.23 13.0426C111.23 10.7971 109.988 9.69822 107.909 9.69822H98.4494V24.0312H95.4395V6.6644H107.909C111.875 6.6644 114.216 9.1249 114.216 12.9948C114.216 15.8614 112.878 17.8919 110.633 18.7519L115.864 24.0312ZM120.639 24.0312H117.605V6.6644H120.639V24.0312ZM139.334 16.3631V6.6644H142.297V16.3631C142.297 21.738 139.645 24.2701 132.908 24.2701C126.22 24.2701 123.544 21.738 123.544 16.3631V6.6644H126.674V16.3631C126.674 19.8508 128.226 21.2841 133.004 21.2841C137.782 21.2841 139.334 19.8508 139.334 16.3631ZM158.055 24.0312H145.036V20.9974H158.055C159.679 20.9974 160.587 20.0897 160.587 18.728C160.587 17.247 159.679 16.4825 158.055 16.4825H150.076C146.804 16.4825 144.773 14.4042 144.773 11.5376C144.773 8.74269 146.66 6.6644 150.124 6.6644H162.594V9.69822H150.124C148.739 9.69822 147.926 10.5104 147.926 11.8243C147.926 13.1381 148.762 13.9265 150.1 13.9265H158.055C161.567 13.9265 163.454 15.5748 163.454 18.943C163.454 21.8574 161.686 24.0312 158.055 24.0312Z" fill="white"/>
<defs>
<clipPath id="clip0_8143_2656">
<rect width="59.2561" height="57.9953" fill="white"/>
</clipPath>
</defs>
</svg>
