<svg width="60" height="58" viewBox="0 0 60 58" fill="none" xmlns="http://www.w3.org/2000/svg">
<g clip-path="url(#sirius-clip)">
<path d="M25.668 36.0336L43.8169 30.5377L28.7679 15.7422L25.668 36.0336Z" fill="#FFF488"/>
<path d="M54.7386 15.7422L43.8203 30.5377L59.2581 29.6461L54.7386 15.7422Z" fill="#AF1915"/>
<path d="M45.853 4.51562L43.8203 30.5387L54.7386 15.7432L45.853 4.51562Z" fill="#F05E3E"/>
<path d="M28.7695 15.7432L45.8512 4.51562L43.8185 30.5387L28.7695 15.7432Z" fill="#F6DE5C"/>
<path d="M33.3833 0L17.9531 1.08928L28.7671 15.7404L33.3833 0Z" fill="#15847F"/>
<path d="M33.3857 0L45.8515 4.51284L28.7695 15.7404L33.3857 0Z" fill="#00DEDA"/>
<path d="M17.955 1.08594L6.26562 11.2009L28.7693 15.7371L17.955 1.08594Z" fill="#15847F"/>
<path d="M22.268 25.0193L28.7693 15.7393L6.26562 11.2031L22.268 25.0193Z" fill="#EC2E1C"/>
<path d="M11.5689 40.3047L9.23047 51.6982L20.7776 57.9959L11.5689 40.3047Z" fill="#00DEDA"/>
<path d="M11.5664 40.3113L20.7751 58.0025L25.6708 36.0391L11.5664 40.3113Z" fill="#15847F"/>
<path d="M20.7695 57.9999L31.4045 45.3281L36.7614 57.9999H20.7695Z" fill="#FFF488"/>
<path d="M31.4062 45.3281L36.7632 57.9999C36.7632 57.9999 49.6381 50.4654 49.276 50.8092L31.4062 45.3281Z" fill="#F6DE5C"/>
<path d="M31.4062 45.3267L43.8159 30.5391L49.276 50.8078L31.4062 45.3267Z" fill="#00DEDA"/>
<path d="M43.8203 30.5322L49.2803 50.8009L59.2581 29.6406L43.8203 30.5322Z" fill="#15847F"/>
<path d="M28.7654 15.7422L18.4023 30.5377L25.6654 36.0336L28.7654 15.7422Z" fill="#F6DE5C"/>
<path d="M11.5664 40.3073L18.4077 30.5391L25.6708 36.035L11.5664 40.3073Z" fill="#FFF488"/>
<path d="M25.668 36.035L31.4072 45.3267L43.8169 30.5391L25.668 36.035Z" fill="#15847F"/>
<path d="M25.6652 36.0391L20.7695 58.0025L31.4045 45.3307L25.6652 36.0391Z" fill="#AF1915"/>
<path d="M6.26562 11.2031L16.8501 32.7545L22.268 25.0193L6.26562 11.2031Z" fill="#AF1915"/>
<path d="M6.2656 11.2031L0 23.1368L13.4764 25.8849L6.2656 11.2031Z" fill="#F05E3E"/>
<path d="M0 23.1328L1.41459 40.6648L6.7382 34.1417L13.4764 25.8809" fill="#AF1915"/>
<path d="M13.4727 25.8828L7.86719 32.7524H16.8463L13.4727 25.8828Z" fill="#00DEDA"/>
<path d="M7.86719 32.7578H16.8463L11.5612 40.3063L7.86719 32.7578Z" fill="#15847F"/>
<path d="M11.5644 40.3063L7.8704 32.7578L1.41406 40.6721L11.5644 40.3063Z" fill="#FFF488"/>
<path d="M1.41406 40.6704L11.5644 40.3047L9.22598 51.6982L1.41406 40.6704Z" fill="#F6DE5C"/>
</g>
<defs>
<clipPath id="sirius-clip">
<rect width="59.2561" height="57.9953" fill="white"/>
</clipPath>
</defs>
</svg>
